{
	"asset":{
		"generator":"Khronos glTF Blender I/O v3.6.6",
		"version":"2.0"
	},
	"scene":0,
	"scenes":[
		{
			"name":"Scene",
			"nodes":[
				0,
				1
			]
		}
	],
	"nodes":[
		{
			"mesh":0,
			"name":"Cylinder",
			"scale":[
				0.06105556711554527,
				0.07789028435945511,
				0.06105556711554527
			],
			"translation":[
				0.07330908626317978,
				0.020053893327713013,
				0.005986541509628296
			]
		},
		{
			"mesh":1,
			"name":"Cylinder.001",
			"scale":[
				0.06105556711554527,
				0.07789028435945511,
				0.06105556711554527
			],
			"translation":[
				-0.05409350246191025,
				0.020053893327713013,
				0.005986541509628296
			]
		}
	],
	"materials":[
		{
			"doubleSided":true,
			"name":"Material.001",
			"pbrMetallicRoughness":{
				"baseColorFactor":[
					0.11492688208818436,
					0.04985402524471283,
					0.04438760504126549,
					1
				],
				"metallicFactor":0,
				"roughnessFactor":0.5
			}
		}
	],
	"meshes":[
		{
			"name":"Cylinder",
			"primitives":[
				{
					"attributes":{
						"POSITION":0,
						"TEXCOORD_0":1,
						"NORMAL":2
					},
					"indices":3,
					"material":0
				}
			]
		},
		{
			"name":"Cylinder.001",
			"primitives":[
				{
					"attributes":{
						"POSITION":4,
						"TEXCOORD_0":5,
						"NORMAL":6
					},
					"indices":3,
					"material":0
				}
			]
		}
	],
	"accessors":[
		{
			"bufferView":0,
			"componentType":5126,
			"count":192,
			"max":[
				0.9999999403953552,
				1,
				4.278901100158691
			],
			"min":[
				-0.9999999403953552,
				-1,
				-4.278901100158691
			],
			"type":"VEC3"
		},
		{
			"bufferView":1,
			"componentType":5126,
			"count":192,
			"type":"VEC2"
		},
		{
			"bufferView":2,
			"componentType":5126,
			"count":192,
			"type":"VEC3"
		},
		{
			"bufferView":3,
			"componentType":5123,
			"count":372,
			"type":"SCALAR"
		},
		{
			"bufferView":4,
			"componentType":5126,
			"count":192,
			"max":[
				0.9999999403953552,
				1,
				4.278901100158691
			],
			"min":[
				-0.9999999403953552,
				-1,
				-4.278901100158691
			],
			"type":"VEC3"
		},
		{
			"bufferView":5,
			"componentType":5126,
			"count":192,
			"type":"VEC2"
		},
		{
			"bufferView":6,
			"componentType":5126,
			"count":192,
			"type":"VEC3"
		}
	],
	"bufferViews":[
		{
			"buffer":0,
			"byteLength":2304,
			"byteOffset":0,
			"target":34962
		},
		{
			"buffer":0,
			"byteLength":1536,
			"byteOffset":2304,
			"target":34962
		},
		{
			"buffer":0,
			"byteLength":2304,
			"byteOffset":3840,
			"target":34962
		},
		{
			"buffer":0,
			"byteLength":744,
			"byteOffset":6144,
			"target":34963
		},
		{
			"buffer":0,
			"byteLength":2304,
			"byteOffset":6888,
			"target":34962
		},
		{
			"buffer":0,
			"byteLength":1536,
			"byteOffset":9192,
			"target":34962
		},
		{
			"buffer":0,
			"byteLength":2304,
			"byteOffset":10728,
			"target":34962
		}
	],
	"buffers":[
		{
			"byteLength":13032,
			"uri":"machine-gun.bin"
		}
	]
}
